<svg width="171" height="31" fill="none" xmlns="http://www.w3.org/2000/svg"><path fill-rule="evenodd" clip-rule="evenodd" d="M120.514.508a.432.432 0 00-.129-.376.469.469 0 00-.39-.125h-5.498a.495.495 0 00-.409.117.459.459 0 00-.153.384v2.806a.459.459 0 00.153.384c.11.098.262.141.409.117h1.222v2.594c0 .754.073 1.474.073 1.474h-.073c-.336-.684-1.79-2.553-5.143-2.553-5.181 0-8.504 3.743-8.504 9.031 0 5.866 3.543 9.179 8.387 9.179 3.507 0 5.333-2.193 5.633-2.912h.073v1.768c0 .508.427.92.953.92h2.627a.738.738 0 00.751-.725v-3.095l.018-18.988zM63.32 5.786a.342.342 0 01-.085.337 10.353 10.353 0 00-2.991 3.587.4.4 0 01-.388.25c-3.317-.297-6.394 2.474-6.394 4.89v4.339h1.298a.51.51 0 01.524.494v2.772a.51.51 0 01-.523.495h-7.632a.508.508 0 01-.38-.136.453.453 0 01-.143-.359v-2.771a.423.423 0 01.13-.372.478.478 0 01.393-.123h1.36V9.238h-1.846a.49.49 0 01-.387-.129.434.434 0 01-.136-.366V5.971a.51.51 0 01.523-.494h5.6a.51.51 0 01.523.494V9.92h.148s1.465-4.623 7.588-4.623c.86.005 1.717.087 2.56.245a.366.366 0 01.258.245zm8.467 13.718c2.033-.019 3.96-.86 5.295-2.31a.515.515 0 01.8-.07l1.829 1.872a.52.52 0 01.075.792c-.381.59-3.01 3.751-8.423 3.751-5.414 0-9.872-3.39-9.872-9.157-.064-2.397.901-4.716 2.675-6.428 1.775-1.713 4.207-2.671 6.74-2.658 5.945 0 8.917 3.391 8.917 9.305 0 .326-.28.59-.624.59H66.71c.144 2.503 2.413 4.44 5.076 4.313zm-.686-10.428c-2.21 0-3.89 1.046-4.308 3.32h8.192c-.069-1.66-1.174-3.32-3.884-3.32zm91.69 10.422a4.998 4.998 0 01-3.488-1.168c-.953-.813-1.527-1.95-1.601-3.122h12.488c.345 0 .624-.265.624-.592 0-5.923-2.972-9.32-8.916-9.32-2.527-.01-4.95.948-6.721 2.656-1.771 1.708-2.738 4.021-2.683 6.415 0 5.776 4.459 9.172 9.872 9.172 5.414 0 8.042-3.165 8.423-3.757a.523.523 0 00.148-.412.533.533 0 00-.223-.381l-1.829-1.876a.515.515 0 00-.799.071c-1.336 1.452-3.263 2.294-5.295 2.314zm3.185-7.101c-.075-1.663-1.18-3.326-3.89-3.326-2.211 0-3.89 1.048-4.309 3.326h8.199zM95.333 21.63c-.066.455.094.915.432 1.24.338.325.815.48 1.258.392h3.939a.474.474 0 00.363-.142.436.436 0 00.121-.359v-2.805a.409.409 0 00-.107-.372.445.445 0 00-.377-.13h-1.396V6.121a.462.462 0 00-.143-.364.501.501 0 00-.378-.137h-3.363a.483.483 0 00-.386.13.444.444 0 00-.135.371v1.692h-.073c-.276-.648-1.96-2.517-5.513-2.517-4.858 0-8.41 3.348-8.41 9.178 0 5.322 3.178 9.065 8.373 9.065 3.663 0 5.164-2.192 5.684-3.418h.11v1.509zM90.525 9.399c-2.652 0-4.447 2.016-4.447 5.145 0 3.13 1.905 4.999 4.447 4.999 2.273 0 4.288-1.692 4.288-5.04 0-3.377-1.905-5.104-4.288-5.104zm20.894-.03c-2.535 0-4.435 1.868-4.435 4.963 0 3.095 1.754 5.182 4.435 5.182 2.425 0 4.276-1.769 4.276-5.147s-2.003-4.999-4.276-4.999zM151.95 19.2h-1.391v-7.68c0-3.646-2.188-6.225-6.263-6.225-3.745 0-5.134 2.062-5.598 2.75a5.08 5.08 0 01-.102.148c-.909-1.768-2.758-2.898-5.435-2.898-3.981 0-5.369 2.458-5.663 2.978l-.037.065h-.111V6.287a.62.62 0 00-.202-.58.717.717 0 00-.627-.162h-2.72c-.454 0-.822.345-.822.771v15.568c0 .283.119.555.333.755.213.2.502.312.804.312h5.224c.14 0 .273-.052.372-.144a.476.476 0 00.154-.349v-2.764a.42.42 0 00-.131-.37.483.483 0 00-.395-.123h-1.31v-7.506c.408-1.396 1.777-2.351 3.32-2.319 2.417 0 3.091 1.484 3.091 3.646v9.494a.399.399 0 00.126.295.457.457 0 00.313.122h5.948a.511.511 0 00.381-.134.444.444 0 00.144-.358v-2.747a.417.417 0 00-.131-.37.481.481 0 00-.394-.123h-1.354v-7.112a4.26 4.26 0 00-.111-.672c.466-1.24 1.733-2.055 3.134-2.017 2.38 0 3.091 1.483 3.091 3.645v8.277c0 .9.778 1.629 1.738 1.629h4.637c.29 0 .525-.22.525-.493v-2.764a.42.42 0 00-.134-.376.485.485 0 00-.404-.117zM24.887 4.119h8.95c1.69.01 3.057 1.335 3.057 2.967v15.19c0 1.638-1.377 2.966-3.076 2.966h-5.745c-6.538 0-8.494 1.52-9.436 4.646a.172.172 0 01-.172.125h-.037a.172.172 0 01-.172-.125c-.935-3.127-2.89-4.646-9.435-4.646H3.075C1.377 25.242 0 23.915 0 22.276V7.086c0-1.638 1.377-2.967 3.075-2.967h8.944c3.083 0 5.755 2.06 6.434 4.96.679-2.9 3.35-4.96 6.434-4.96zM15.5 20.514a.21.21 0 01-.065.15.225.225 0 01-.156.063H5.007a.225.225 0 01-.157-.062.21.21 0 01-.065-.151V19.1c0-.117.1-.213.222-.213h10.272c.122 0 .221.095.221.213v1.413zm-.221-3.547a.218.218 0 00.221-.214V15.34a.218.218 0 00-.221-.214H5.007a.218.218 0 00-.222.214v1.412c0 .056.023.11.065.15a.224.224 0 00.157.064h10.272zm.221-3.977a.218.218 0 01-.221.214H5.007a.218.218 0 01-.222-.214v-1.412c0-.118.1-.214.222-.214h10.272c.122 0 .221.096.221.214v1.412zm16.543 7.669a.21.21 0 00.065-.151v-1.412c0-.118-.1-.214-.222-.214H21.614a.226.226 0 00-.157.063.21.21 0 00-.064.15v1.413a.21.21 0 00.064.15c.042.04.098.063.157.063h10.272a.226.226 0 00.157-.062zm.065-3.913c0 .118-.1.214-.222.214H21.614a.226.226 0 01-.157-.063.21.21 0 01-.064-.151v-1.412a.21.21 0 01.064-.151.226.226 0 01.157-.063h10.272c.122 0 .222.096.222.214v1.412zm-.222-3.548a.218.218 0 00.222-.214v-1.406c0-.118-.1-.214-.222-.214H21.614a.218.218 0 00-.221.214v1.406c0 .118.099.214.221.214h10.272z" fill="#118CFD"/></svg>