<svg xmlns="http://www.w3.org/2000/svg" viewBox="0 0 277.83 50.32"><path d="M108.03 25.95a7.74 7.74 0 008.12 7.33 11.4 11.4 0 008.48-3.91.8.8 0 011.28-.12l2.93 3.17a.91.91 0 01.12 1.34c-.61 1-4.82 6.35-13.49 6.35s-15.81-5.74-15.81-15.5a15 15 0 0115.08-15.38c9.52 0 14.28 5.74 14.28 15.75a1 1 0 01-1 1h-20zm13.25-4.7c-.12-2.81-1.89-5.62-6.23-5.62-3.54 0-6.23 1.77-6.9 5.62h13.12zm135.38 4.59a7.74 7.74 0 008.14 7.32 11.4 11.4 0 008.48-3.91.8.8 0 011.28-.12l2.93 3.17a.91.91 0 01.12 1.34c-.61 1-4.82 6.35-13.49 6.35s-15.81-5.74-15.81-15.5a15 15 0 0115.06-15.33c9.52 0 14.28 5.74 14.28 15.75a1 1 0 01-1 1h-20zm13.24-4.68c-.12-2.81-1.89-5.62-6.23-5.62-3.54 0-6.23 1.77-6.9 5.62h13.13zm-111.96 18.5a2.49 2.49 0 01-2.81-2.81v-2.56h-.18c-.85 2.08-3.3 5.8-9.28 5.8-8.48 0-13.67-6.35-13.67-15.38 0-9.89 5.8-15.57 13.73-15.57 5.8 0 8.55 3.17 9 4.27h.12v-2.87a.77.77 0 01.85-.85h5.49a.8.8 0 01.85.85v22.62h2.28a.71.71 0 01.79.85v4.76a.76.76 0 01-.79.85h-6.43zm-3.66-14.89c0-5.74-3.11-8.67-7-8.67-4.33 0-7.26 3.42-7.26 8.73s3.11 8.48 7.26 8.48c3.71 0 7-2.87 7-8.55zm-56.57-7.98a17.59 17.59 0 014.86-6.16.61.61 0 00-.28-1 22.23 22.23 0 00-4.16-.42c-9.95 0-12.33 7.94-12.33 7.94h-.24v-6.78a.85.85 0 00-.85-.85h-9.1a.85.85 0 00-.85.85v4.76a.77.77 0 00.85.85h3v17.09H76.4a.75.75 0 00-.85.85v4.76a.8.8 0 00.85.85h12.4a.85.85 0 00.85-.85v-4.76a.85.85 0 00-.85-.85h-2.11v-7.45c0-4.15 5-8.91 10.39-8.4a.65.65 0 00.63-.43zm98.54 16.24V.85a.75.75 0 00-.85-.85h-9a.79.79 0 00-.92.85v4.76a.79.79 0 00.92.85h2v4.4c0 1.28.12 2.5.12 2.5h-.12c-.55-1.16-2.93-4.33-8.42-4.33-8.48 0-13.92 6.35-13.92 15.32 0 9.95 5.8 15.57 13.73 15.57 5.74 0 8.73-3.72 9.22-4.94h.12v3a1.56 1.56 0 001.56 1.56h4.3a1.23 1.23 0 001.23-1.23v-5.25zm-14.89.06c-4.39 0-7.26-3.54-7.26-8.79s3.11-8.42 7.26-8.42c3.72 0 7 2.75 7 8.48s-3.03 8.73-7 8.73zm65.57.02h-2.25V19.86c0-6.29-3.54-10.74-10.13-10.74s-8.67 4.21-9.22 5c-1.47-3.05-4.46-5-8.79-5-6.78 0-8.91 4.7-9.22 5.25h-.18v-3.54a1.11 1.11 0 00-1.34-1.28h-4.4a1.33 1.33 0 00-1.33 1.33v26.86a1.84 1.84 0 001.84 1.84h8.45a.85.85 0 00.85-.85v-4.77a.75.75 0 00-.85-.85h-2.12V20.16a5.44 5.44 0 015.37-4c3.91 0 5 2.56 5 6.29v16.38a.71.71 0 00.71.72h9.62a.8.8 0 00.85-.85v-4.74a.75.75 0 00-.85-.85h-2.19V20.84a7.62 7.62 0 00-.18-1.16 5.22 5.22 0 015.07-3.48c3.85 0 5 2.56 5 6.29v14.28a2.81 2.81 0 002.81 2.81h7.5a.85.85 0 00.85-.85v-4.77a.75.75 0 00-.87-.85zM55.06 6.59H40.51a10.72 10.72 0 00-10.46 8.36 10.72 10.72 0 00-10.46-8.36H5.05a5 5 0 00-5 5v25.6a5 5 0 005 5h9.34c10.64 0 13.82 2.56 15.34 7.83a.28.28 0 00.28.21h.06a.28.28 0 00.28-.21c1.53-5.27 4.71-7.83 15.34-7.83h9.34a5 5 0 005-5v-25.6a5 5 0 00-4.97-5zM25.25 34.22a.36.36 0 01-.36.36H8.19a.36.36 0 01-.36-.36v-2.38a.36.36 0 01.36-.36h16.7a.36.36 0 01.36.36v2.38zm0-6.34a.36.36 0 01-.36.36H8.19a.36.36 0 01-.36-.36V25.5a.36.36 0 01.36-.36h16.7a.36.36 0 01.36.36v2.38zm0-6.34a.36.36 0 01-.36.36H8.19a.36.36 0 01-.36-.36v-2.38a.36.36 0 01.36-.36h16.7a.36.36 0 01.36.36v2.38zm27 12.67a.36.36 0 01-.36.36h-16.7a.36.36 0 01-.36-.36v-2.38a.36.36 0 01.36-.36h16.7a.36.36 0 01.36.36v2.38zm0-6.34a.36.36 0 01-.36.36h-16.7a.36.36 0 01-.36-.36v-2.38a.36.36 0 01.36-.36h16.7a.36.36 0 01.36.36v2.38zm0-6.34a.36.36 0 01-.36.36h-16.7a.36.36 0 01-.36-.36v-2.37a.36.36 0 01.36-.36h16.7a.36.36 0 01.36.36v2.38z" fill="#fff"/></svg>